<svg xmlns="http://www.w3.org/2000/svg" width="1024" height="1024" fill="none"><path fill="url(#a)" d="m148.519 446.942-21.712 1.049c7.291-42.906 21.82-86.86 45.35-127.935 23.529-41.07 56.064-79.249 92.43-109.533C337.324 149.948 425.39 120.967 513.663 121c89.677.033 179.566 30.013 252.788 92.408 36.611 31.192 69.053 70.495 92.18 112.526 23.126 42.026 36.932 86.779 43.369 130.212-75.806-6.172-136.387-.668-186.123 12.41-8.581-44.634-35.697-90.523-74.582-121.226-19.443-15.354-41.829-26.91-63.677-34.435-21.843-7.52-43.146-11.008-65.331-10.91-43.059.196-89.454 13.898-127.077 42.661-37.618 28.764-66.458 72.577-76.291 115.945l-20.787-4.309a416.443 416.443 0 0 0-13.631-2.608 470.614 470.614 0 0 0-26.402-3.847 521.098 521.098 0 0 0-17.032-1.717 551.202 551.202 0 0 0-23.965-1.488 617.798 617.798 0 0 0-28.492-.495 684.947 684.947 0 0 0-30.091.815Z"/><path fill="url(#b)" d="m413.179 574.859 21.597 21.478c47.926-56.966 72.588-87.839 88.713-129.447l-7.602-7.561-19.638 9.31c-20.641 40.394-40.362 63.792-83.07 106.22Z"/><path fill="url(#c)" d="M434.258 510.333c22.598-29.324 39.817-43.916 83.326-64.766 33.573 30.814 42.19 51.2 55.527 88.18 11.127-23.117 13.898-36.333 3.67-61.239-13.467-20.45-23.021-27.883-44.208-32.634 31.154-7.747 49.833-9.999 89.139-3.709-8.063-15.819-17.436-21.693-37.306-30.233-14.128-2.596-22.912-2.128-40.514 2.968 3.405-12.669 3.778-20.762 2.167-36.64-5.937-20.566-13.276-27.137-28.179-36.608 4.524 42.077 2.147 58.94-6.039 83.603-12.621-20.762-23.488-28.668-51.281-34.518-22.392.021-31.815 3.802-44.455 15.529 46.222 10.023 63.536 18.245 85.251 35.686-22.905-2.497-34.555 2.16-53.586 19.495-16.969 19.418-18.605 31.664-13.512 54.886Z"/><path fill="url(#d)" d="M502.79 615.188c-29.825 33.839-57.26 65.745-91.308 87.287-109.159 69.076-189.631 58.983-202.405 56.856-60.705-73.547-88.374-166.048-88.075-247.149.055-14.087.947-27.826 2.504-42.585 219.793-18.113 309.033 65.896 379.284 145.591Z"/><path fill="url(#e)" d="m256.297 780.483-27.873 2.694 13.328 12.639c26.924 25.586 58.94 48.443 94.591 66.208 35.652 17.766 74.94 30.437 115.338 36.574 40.398 6.136 81.907 5.737 120.997-.446 39.088-6.183 75.757-18.15 110.054-34.923 34.296-16.774 66.219-38.354 95.076-65.267 28.856-26.914 54.644-59.163 74.593-94.456 19.949-35.292 34.057-73.629 41.919-112.164 7.86-38.535 9.475-77.269 5.812-113.649l-21.426-2.102a717.06 717.06 0 0 0-21.141-.947 652.808 652.808 0 0 0-20.708-.295c-8.95.017-17.9.226-26.841.651-8.406.401-16.803.994-25.179 1.8a467.569 467.569 0 0 0-23.6 2.868 424.022 424.022 0 0 0-22.104 3.862 386.538 386.538 0 0 0-20.694 4.781 358.047 358.047 0 0 0-19.378 5.625 338.656 338.656 0 0 0-18.15 6.402 325.796 325.796 0 0 0-17.02 7.114 317 317 0 0 0-31.01 16.125 322.222 322.222 0 0 0-14.171 8.898 333.9 333.9 0 0 0-13.398 9.384 356.61 356.61 0 0 0-12.706 9.817 388.081 388.081 0 0 0-12.094 10.198 439.283 439.283 0 0 0-11.558 10.526 511.173 511.173 0 0 0-11.094 10.797 621.422 621.422 0 0 0-8.303 8.492 752.825 752.825 0 0 0-10.455 11.137 1164.482 1164.482 0 0 0-13.703 15.175c-6.65 7.483-13.234 15.027-19.851 22.539-5.213 5.919-10.447 11.819-15.758 17.65a729.927 729.927 0 0 1-10.055 10.833 511.325 511.325 0 0 1-11.698 11.959 390.935 390.935 0 0 1-10.632 10.128 318.802 318.802 0 0 1-11.046 9.671 269.173 269.173 0 0 1-11.548 9.125 234.918 234.918 0 0 1-13.696 9.486l-1.047.666a489.096 489.096 0 0 1-13.494 8.25 464.109 464.109 0 0 1-21.139 11.733 429.924 429.924 0 0 1-20.357 9.943 402.23 402.23 0 0 1-19.504 8.289c-11.839 4.664-23.908 8.749-36.168 12.157a335.205 335.205 0 0 1-16.522 4.149 315.54 315.54 0 0 1-15.384 3.046 289.875 289.875 0 0 1-21.203 2.858Z"/><defs><linearGradient id="a" x1="513.064" x2="513.064" y1="467.367" y2="121" gradientUnits="userSpaceOnUse"><stop stop-color="#FF703B"/><stop offset="1" stop-color="#F8BF00"/></linearGradient><linearGradient id="b" x1="432.187" x2="535.464" y1="551.328" y2="375.713" gradientUnits="userSpaceOnUse"><stop stop-color="#246614"/><stop offset="1" stop-color="#79F67F"/></linearGradient><linearGradient id="c" x1="432.187" x2="535.464" y1="551.328" y2="375.713" gradientUnits="userSpaceOnUse"><stop stop-color="#246614"/><stop offset="1" stop-color="#79F67F"/></linearGradient><linearGradient id="d" x1="311.895" x2="311.895" y1="467.107" y2="761.081" gradientUnits="userSpaceOnUse"><stop stop-color="#EBDCC9"/><stop offset="1" stop-color="#BCA281"/></linearGradient><linearGradient id="e" x1="565.212" x2="565.212" y1="474.348" y2="892.139" gradientUnits="userSpaceOnUse"><stop stop-color="#72D1E9"/><stop offset="1" stop-color="#273B84"/></linearGradient></defs></svg>